# xmcd
#
# Track frame offsets: 
#        150
#        36171
#        79485
#        107412
#        144789
#        188220
#        225018
#        256677
#        283017
#        330510
#
# Disc length: 4576 seconds
#
# Revision: 1
# Processed by: cddbd v1.5.1PL2 Copyright (c) Steve Scherf et al.
# Submitted via: ExactAudioCopy v0.95b4
#
DISCID=7611de0a
DTITLE=Eldar  - Live At The Blue Note
DYEAR=2006
DGENRE=Jazz
TTITLE0=What Is This Thing Called Love
TTITLE1=Someday
TTITLE2=You Don't Know What Love Is feat. Chris Botti
TTITLE3=Daily Living
TTITLE4=Dat Dere
TTITLE5=Besame Mucho
TTITLE6=Straight, No Chaser feat. Roy Hargrove
TTITLE7=Sincerely
TTITLE8=Chronicle
TTITLE9=Take The "A" Train
EXTD=YEAR: 2005
EXTT0=
EXTT1=
EXTT2=
EXTT3=
EXTT4=
EXTT5=
EXTT6=
EXTT7=
EXTT8=
EXTT9=
PLAYORDER=
